<?xml version="1.0" encoding="utf-8"?>
<!-- Generator: Adobe Illustrator 27.5.0, SVG Export Plug-In . SVG Version: 6.00 Build 0)  -->
<svg version="1.2" baseProfile="tiny" xmlns="http://www.w3.org/2000/svg" xmlns:xlink="http://www.w3.org/1999/xlink" x="0px"
	 y="0px" viewBox="50 45 500 500" overflow="visible" xml:space="preserve">
<g id="Layer_1">
</g>
<g id="Layer_4">
</g>
<g id="Layer_5">
	<g>
		<g>
			<path fill="#26A772" d="M290,122.8c-1.2,1.3-2.9,2.3-4.7,2.6c-19.4,3.3-34.9-0.1-46-10.1C221,98.9,222.5,71,222.6,69.8
				c0.3-4.2,3.6-7.5,7.8-7.7c21.1-1,37.3,4.3,48.2,15.7c15.6,16.5,13.6,39.3,13.5,40.2C291.9,119.9,291.1,121.5,290,122.8z
				 M239.4,78.6c0.8,7.2,3.3,17.7,10.9,24.5c5.9,5.3,14.4,7.6,25.1,6.9c-0.6-5.8-2.6-14.3-8.9-20.9
				C260.5,82.7,251.4,79.2,239.4,78.6z"/>
			<path fill="#26A772" d="M332.1,261.8c-39.9-25.9-57.8-65.7-51.7-115c4.5-36.3,20.4-64.8,21.1-65.9c2.2-4,7.3-5.4,11.2-3.1
				c4,2.2,5.4,7.3,3.1,11.2c-0.2,0.4-15.1,27.2-19.1,60.3c-5.2,43,9.7,76.2,44.4,98.6c3.8,2.5,4.9,7.6,2.4,11.4
				C341,263.2,335.9,264.3,332.1,261.8z"/>
			<path fill="#26A772" d="M297.6,164.8c-4.9-3.2-7.8-6.1-8.1-6.3c-2.6-2.6-3.2-6.7-1.3-9.9c9.8-17.1,22.3-26.9,37-29.1
				c24.3-3.7,44.8,15.2,45.7,16c3.1,2.9,3.5,7.6,1,11c-12.6,16.9-27,26.1-42.7,27.2C315.8,174.6,304.7,169.4,297.6,164.8z
				 M306.3,150.8c4.9,3.2,12.7,7.1,21.8,6.4c8.8-0.7,17.3-5.5,25.3-14.3c-6.1-3.9-15.8-8.7-25.8-7.1
				C319.7,137,312.6,142,306.3,150.8z"/>
			<path fill="#26A772" d="M237.1,211.3c-17.6-11.4-23.7-33.3-24-34.3c-1.1-4.1,1-8.3,4.9-9.8c19.7-7.7,36.7-7.9,50.6-0.6
				c20.1,10.6,25.5,32.8,25.7,33.8c0.8,3.6-0.8,7.4-4.1,9.1c-17.3,9.4-33.1,11.1-46.8,5.2C241.2,213.7,239.1,212.6,237.1,211.3z
				 M231.8,179.9c3.1,6.5,8.9,15.7,18.2,19.7c7.3,3.1,16.1,2.6,26-1.5c-2.4-5.3-7.1-12.7-15.2-16.9
				C253.1,177,243.3,176.6,231.8,179.9z M221,174.8L221,174.8L221,174.8z"/>
		</g>
		<g>
			<path fill="#9D6247" d="M274.5,269.9c-0.7,15.5-2.6,30.7-1.2,46.3l-1.8,1.1c-3.2,0-12.4,0.5-17.5,1.1c-4.8,0.5-8.5,0.9-12.5,1.4
				c-1.2,0.2-2.3-0.7-1.8-2.8c2.8-11.1,4.8-24.9,5.5-36.2c0.5-5.8,2.6-13.1-8.7-14.5c-4.8-0.7-7.9-1.1-10.6-1.1
				c-2.3,0-4.1,0.5-5.7,1.8c-2.5,1.9-0.7,12.7-0.7,16.6c1.4,19.3,1.4,15.9,2.8,31.3c0.5,4.1-0.4,6.4-3.7,6.4
				c-17.5,0.5-14.1,1.6-22.6,1.6c-1.4,0-2.1-1.1-1.9-3c0.2-2.6,0.4-4.8,0.4-8.8c0.5-29.7,1.6-38.2,0.2-70c-1.1-5.3,3.4-2.8,5.8-3.2
				c2.1,0,3.4-0.4,8.1-0.7c16.6-1.4,42.9-9.9,58.5-5.1C274,233.7,275.4,252.6,274.5,269.9z"/>
			<path fill="#9D6247" d="M364.3,273.1c0,25.4-10.4,44.9-40.8,44.9c-29.1,0-35.9-16.1-35.9-44c0-29,9.7-46.8,42.6-46.8
				C360.6,227.2,364.3,249.6,364.3,273.1z M335.8,275c0-6.2-2.3-16.3-12.5-16.3c-12.7,0-15.9,11.1-15.9,19.3
				c0,6.5,1.8,24.6,12.4,24.6C333.6,302.6,335.8,288.3,335.8,275z"/>
		</g>
		<g>
			<path fill="#9D6247" d="M272.7,381.7c0.2,9.9,0,17.1-0.5,24c-0.5,6.2-0.7,12.2-9.2,14.1c-6,1.4-7.4,2.1-14.1,2.1
				c-24.9,0-36-12.7-36-36.6v-12.5c0-10.6-1.8-15.7-9.7-16.4c-5.8-0.5-8.1-0.9-7.9-5.1c0.2-2.3,0.2-4.6,0.2-6.7c0-2.1,0-4.4,0.2-7.1
				l0.9-0.9c21.7-1.2,45.4-3,64.7-4.6c3-0.2,6,1.8,5.5,6c-0.5,6.2-0.5,11.8-0.7,18.2c-0.2,7.1-0.7,8.7-5.5,8.1
				c-21.2-1.4-26.7,3.5-26.7,17h0.2c0,6.2,4.8,7.8,9.2,7.8h3.9c7.1,0,15-4.1,23-9.2C271.8,378.7,272.7,379.5,272.7,381.7z"/>
			<path fill="#9D6247" d="M313.2,338.5c-1.9,22.4-3.4,57.4-3.4,79.1c0,3-0.4,5.1-3.4,4.9c-3,0-4.1-0.2-5.3-0.2
				c-0.9,0-1.9-0.2-4.8-0.2c-1.2,0-5.7-0.2-7.8-0.2c-1.2,0-1.9-0.7-1.8-2.3c0.2-1.9-0.2-3.4,0.4-6.7c1.4-19.1-1.9-50.5-4.2-73.7
				c-0.2-2.6,0.7-2.5,2.8-2.6c5.8-0.5,8.7-0.9,14.1-1.4c2.3-0.2,6-0.7,8.8-1.2C312.5,333.5,313.7,333.7,313.2,338.5z"/>
		</g>
		<g>
			<g>
				<path fill="#26A772" d="M264.3,519c-0.1,3.2,0.5,5.5,0.5,8.1c0,2.8-0.1,3.2-3.5,3.1h-1.6c-0.7,0-1.9,0-3.6-0.1
					c-19.3-0.7-33.3-1.7-51.9-1.3c-3.6,0-5.6,0.5-9.4,0.5c-1.5-0.8-2-1.9-1.6-3.1c1.7-7.5,0.7-18,0-25.5c-0.1-1.1,0.8-1.6,2.3-2.7
					c6-7.1,23.8-18.3,37.9-32.8c-0.5,0,0-1.1-0.5-1.1c-5.4,0-9.5-0.3-14.4-0.3c-4.8,0-10.6,0.3-19.3,0.9c-3.4,0.4-6.2-0.4-5.8-3.5
					c0.1-1.5,0.3-2.8,0.4-4c0.3-3.8,0.5-6.9,0.5-11.2c0-1.1-0.5-2.7-0.5-5c0-1.3,0.9-2,2.7-1.9c0.5,0.1,1.3,0.1,2.3,0.1h3.1
					c2.1,0,4.6,0.1,6.3,0.1c8.7,0.4,14.6,0.5,19.5,0.5c10.1,0,16.1-0.5,33.9-2c4.6-1.1,2.4,3.4,2.8,5.8v2v2c0,0.7,0,1.6,0.1,2.7
					c0,3.1,0.7,11.2,0.7,14.1c0,0.3-3.5,3.5-4,3.5c-6.7,5-23.1,18-34.9,30.5L226,500c10.3,1.5,22.6,1.6,30.8,1.2
					c2-0.1,3.8-0.8,5.8-0.4c3,0,2.4,0.5,2.4,3.1L264.3,519z"/>
			</g>
			<g>
				<path fill="#26A772" d="M403.6,495.7c0,20.3-9.5,37.6-33.2,37.6c-5.8,0-15.4-3.7-22.3-9.2c-4.6-4.2-9.9-7.4-15-2.8
					c-3.4,3.4-10.1,10.2-17.7,10.2c-9.4,0-16.6-4.2-20.7-8.3c-12.7-13.1-15.5-40.5-15.5-62c0-8.7,0.4-16.6,0.9-22.3l1.8-1.2
					c3.4,0,12.5-0.4,17.5-0.9c4.8-0.5,8.8-0.9,12.5-1.4c1.2-0.5,2.3,0.5,1.8,2.6c-2.3,9.4-5.7,24-5.7,33.9c0,6.4,2.5,16.3,10.8,16.3
					c11.5,0,12.2-9.4,12.2-12.9c0-6.2-1.2-10.2-1.8-16.4c-0.5-4.1,0.2-6.5,3.5-6.5c17.7-0.5,14.5-1.4,23.1-1.4c1.6,0,2.3,1.1,1.9,3
					c-1.4,11.8-2.1,22.4-2.1,30.7c0,7.8,0.7,14.8,10.8,14.8c7.6,0,9-10.2,9-16.1c0-9.5-3.2-28.8-5.7-38.3c-0.5-2.1,0.5-3.2,1.8-2.6
					c3.7,0.5,7.8,0.9,12.5,1.4c5.1,0.5,13.1,0.9,16.4,0.9l1.6,1.2C400.8,462.8,403.6,478.9,403.6,495.7z"/>
			</g>
		</g>
		<g>
			<g>
				<path fill="#2F483A" d="M329.1,394.8c0,3.8,3,6.8,6.8,6.8c3.8,0,6.8-3,6.8-6.8c0-3.8-3-13.5-6.8-13.5S329.1,391.1,329.1,394.8z"
					/>
				<path fill="#2F483A" d="M341.1,426.9c0,3.8,3,6.8,6.8,6.8c3.8,0,6.8-3,6.8-6.8c0-3.8-3-13.5-6.8-13.5S341.1,423.2,341.1,426.9z"
					/>
				<path fill="#2F483A" d="M408.8,369.1l9.2,11.7c1.4,1.8,3.5,2.9,5.8,3.1c2.3,0.2,4.5-0.6,6.2-2.1l37.9-34.5
					c1.7-1.5,2.7-3.7,2.7-6c0-2.2-0.8-4.2-2.3-5.8c12.4-11.9,13.1-31.6,1.5-44.4c-6-6.6-14.6-10.4-23.6-10.4c-8,0-15.6,3-21.5,8.3
					c-0.9,0.8-1.7,1.7-2.5,2.6l-0.7-0.6c-3.1-3-8-3-11.2-0.1l-31.1,28.4c-3.2,2.9-3.6,7.8-0.9,11.2l18.4,23.4l-37.4-5.5
					c-1.3-7.1-6.1-13.1-12.8-15.8c-1.1-0.4-2.4-0.4-3.4,0.2c-1,0.6-1.7,1.6-1.9,2.8l-4.8,32.9c-0.2,1.2,0.2,2.4,1,3.3
					c0.8,0.9,2,1.3,3.2,1.2c7.2-0.6,13.6-5,16.8-11.4L408.8,369.1z M461.1,328.5l-31.5-30c0.6-0.7,1.3-1.4,2-2.1
					c4-3.7,9.2-5.7,14.7-5.7c6.1,0,12,2.6,16.1,7.1C470.4,306.7,469.8,320.4,461.1,328.5z"/>
			</g>
		</g>
	</g>
</g>
<g id="Layer_6" display="none">
</g>
<g id="Layer_3">
</g>
<g id="Layer_2">
</g>
</svg>
