<svg xmlns="http://www.w3.org/2000/svg" xmlns:xlink="http://www.w3.org/1999/xlink" width="46" height="46"><defs><rect id="b" width="40" height="40" x="0" y="0" rx="2"/><rect id="c" width="38" height="38" x="5" y="5" rx="1"/><filter id="a" width="200%" height="200%" x="-50%" y="-50%" filterUnits="objectBoundingBox"><feOffset dy="1" in="SourceAlpha" result="shadowOffsetOuter1"/><feGaussianBlur in="shadowOffsetOuter1" result="shadowBlurOuter1" stdDeviation=".5"/><feColorMatrix in="shadowBlurOuter1" result="shadowMatrixOuter1" values="0 0 0 0 0 0 0 0 0 0 0 0 0 0 0 0 0 0 0.168 0"/><feOffset in="SourceAlpha" result="shadowOffsetOuter2"/><feGaussianBlur in="shadowOffsetOuter2" result="shadowBlurOuter2" stdDeviation=".5"/><feColorMatrix in="shadowBlurOuter2" result="shadowMatrixOuter2" values="0 0 0 0 0 0 0 0 0 0 0 0 0 0 0 0 0 0 0.084 0"/><feMerge><feMergeNode in="shadowMatrixOuter1"/><feMergeNode in="shadowMatrixOuter2"/><feMergeNode in="SourceGraphic"/></feMerge></filter></defs><g fill="none" fill-rule="evenodd"><g filter="url(#a)" transform="translate(3 3)"><use xlink:href="#b" fill="#4285F4"/><use xlink:href="#b"/><use xlink:href="#b"/><use xlink:href="#b"/></g><g transform="translate(-1 -1)"><use xlink:href="#c" fill="#FFF"/><use xlink:href="#c"/><use xlink:href="#c"/><use xlink:href="#c"/></g><path fill="#4285F4" d="M31.64 23.2045c0-.6381-.0573-1.2518-.1636-1.8409H23v3.4814h4.8436c-.2086 1.125-.8427 2.0782-1.7959 2.7164v2.2581h2.9087c1.7018-1.5668 2.6836-3.874 2.6836-6.615Z"/><path fill="#34A853" d="M23 32c2.43 0 4.4673-.806 5.9564-2.1805l-2.9087-2.2581c-.8059.54-1.8368.859-3.0477.859-2.344 0-4.3282-1.5831-5.036-3.7104h-3.0067v2.3318C16.4382 29.9832 19.4818 32 23 32Z"/><path fill="#FBBC05" d="M17.964 24.71c-.18-.54-.2822-1.1168-.2822-1.71s.1023-1.17.2823-1.71v-2.3318h-3.0068A8.9965 8.9965 0 0 0 14 23c0 1.4523.3477 2.8268.9573 4.0418L17.964 24.71Z"/><path fill="#EA4335" d="M23 17.5795c1.3214 0 2.5077.4541 3.4405 1.346l2.5813-2.5814C27.4632 14.8918 25.426 14 23 14c-3.5182 0-6.5618 2.0168-8.0427 4.9582L17.964 21.29c.7077-2.1273 2.6918-3.7105 5.0359-3.7105Z"/><path d="M14 14h18v18H14V14Z"/></g></svg>
