<?xml version="1.0" encoding="UTF-8"?><svg id="Layer_2" xmlns="http://www.w3.org/2000/svg" viewBox="0 0 476.69 201.85"><defs><style>.cls-1{fill:#fff;stroke:#000;stroke-miterlimit:10;stroke-width:.25px;}</style></defs><g id="Layer_1-2"><path class="cls-1" d="m59.06,162.22c-.5,11.4-1.9,22.5-.9,33.9l-1.3.8c-2.3,0-9.1.4-12.8.8-3.5.4-6.2.6-9.2,1-.9.1-1.7-.5-1.3-2.1,2.1-8.2,3.5-18.3,4-26.5.4-4.3,1.9-9.6-6.3-10.6-3.5-.5-5.8-.8-7.8-.8-1.7,0-3,.4-4.1,1.3-1.8,1.4-.5,9.3-.5,12.2,1,14.1,1,11.6,2.1,22.9.4,3-.3,4.7-2.7,4.7-12.9.3-10.5,1.1-16.7,1.1-1,0-1.6-.8-1.4-2.2.1-1.9.3-3.5.3-6.5.3-21.7,1.1-28,.1-51.3-.8-3.9,2.5-2.1,4.3-2.3,1.6,0,2.5-.3,6-.5,12.2-1,31.5-7.2,42.8-3.8,5,1.3,6,15.2,5.4,27.9Z"/><path class="cls-1" d="m75.96,85.22c5.2,3.3,13.3,7.2,23.1,6.5,11.5-.8,22-7.5,31.3-19.9,1.8-2.5,1.5-5.9-.7-8-.6-.6-15.7-14.4-33.5-11.7-7,1.1-13.3,4.5-18.8,10.1,4.2-18.7,11.8-32.3,11.9-32.6,1.6-2.9.6-6.6-2.3-8.2s-6.6-.6-8.2,2.3c-.3.5-3.8,6.8-7.5,16.7-1.1-5.8-3.5-12.9-9.2-18.9-8-8.4-19.8-12.3-35.3-11.6-3.1.1-5.6,2.6-5.7,5.7-.1.8-1.2,21.3,12.1,33.3,8,7.2,19.1,9.7,33.1,7.5-1.2,4.9-2.3,10.1-2.9,15.6-.9,7-1.1,13.8-.6,20.3-2.2-2.2-4.8-4.2-7.9-5.8-10.3-5.4-22.8-5.3-37.2.4-2.9,1.1-4.4,4.2-3.6,7.2.2.8,4.7,16.8,17.6,25.1,1.4.9,3,1.8,4.6,2.5,9.6,4.1,20.6,3.1,32.6-2.9,2.6,6.3,6.1,12.1,10.3,17.5-7.8,5.7-10.5,15.7-10.5,28.9,0,20.5,4.9,32.2,26.3,32.2s29.9-14.2,29.9-32.9c0-17.2-2.7-33.7-25-33.7-3.3,0-6.3.3-9,.7-11.1-12.8-16.6-28.6-16.3-47.3.4.3.9.6,1.4,1Zm22-21.3c7.4-1.1,14.5,2.3,18.9,5.2-5.9,6.5-12.1,10-18.6,10.5-6.6.5-12.4-2.3-16-4.7,4.7-6.4,9.9-10.1,15.7-11Zm-56.6-24c-5.5-5-7.4-12.7-8-17.9,8.7.5,15.4,3,19.9,7.7,4.6,4.8,6.1,11.1,6.5,15.3-7.9.5-14.1-1.2-18.4-5.1Zm-.3,70.7c-6.8-2.9-11.1-9.6-13.3-14.4,8.4-2.4,15.6-2.1,21.3.9,5.9,3.1,9.3,8.5,11.1,12.4-7.3,3-13.7,3.4-19.1,1.1Zm51.1,75.5c-7.8,0-9.1-13.2-9.1-18,0-6,2.3-14.1,11.6-14.1,7.5,0,9.2,7.4,9.2,11.9.1,9.7-1.6,20.2-11.7,20.2Z"/><path class="cls-1" d="m186.56,167.03c.1,7.2,0,12.6-.4,17.6-.4,4.5-.5,8.9-6.7,10.4-4.4,1-5.4,1.6-10.4,1.6-18.3,0-26.4-9.3-26.4-26.8v-9.2c0-7.8-1.3-11.5-7.1-12-4.3-.4-6-.6-5.8-3.8.1-1.7.1-3.4.1-4.9,0-1.6,0-3.2.1-5.2l.6-.6c15.9-.9,33.3-2.2,47.4-3.4,2.2-.1,4.4,1.3,4,4.4-.4,4.5-.4,8.7-.5,13.3-.1,5.2-.5,6.3-4,6-15.5-1-19.5,2.6-19.5,12.4h.1c0,4.5,3.5,5.7,6.7,5.7h2.8c5.2,0,11-3,16.8-6.7,1.6-1,2.2-.4,2.2,1.2Z"/><path class="cls-1" d="m216.26,135.32c-1.4,16.4-2.5,42.1-2.5,58,0,2.2-.3,3.8-2.5,3.6-2.2,0-3-.1-3.9-.1-.6,0-1.4-.1-3.5-.1-.9,0-4.1-.1-5.7-.1-.9,0-1.4-.5-1.3-1.7.1-1.4-.1-2.5.3-4.9,1-14-1.4-37-3.1-54-.1-1.9.5-1.8,2.1-1.9,4.3-.4,6.3-.6,10.4-1,1.7-.1,4.4-.5,6.5-.9,2.6-.5,3.6-.4,3.2,3.1Z"/><path class="cls-1" d="m313.76,185.03c-.2,3.8.6,6.4.6,9.4,0,3.3-.2,3.8-4.1,3.6h-1.9c-.8,0-2.2,0-4.2-.2-22.6-.8-38.9-2-60.6-1.6-4.2,0-6.6.6-11,.6-1.7-.9-2.4-2.2-1.9-3.6,2-8.8.8-21,0-29.8-.2-1.3.9-1.9,2.7-3.1,7.1-8.3,27.8-21.4,44.3-38.3-.6,0,0-1.3-.6-1.3-6.3,0-11.1-.3-16.8-.3s-12.4.3-22.6,1.1c-3.9.5-7.2-.5-6.8-4.1.2-1.7.3-3.3.5-4.7.3-4.4.6-8,.6-13,0-1.3-.6-3.1-.6-5.8,0-1.6,1.1-2.4,3.1-2.2.6.2,1.6.2,2.7.2h3.6c2.5,0,5.3.2,7.4.2,10.2.5,17.1.6,22.8.6,11.8,0,18.8-.6,39.6-2.4,5.3-1.3,2.8,3.9,3.3,6.8v4.8c0,.8,0,1.9.2,3.1,0,3.6.8,13,.8,16.5,0,.3-4.1,4.1-4.7,4.1-7.8,5.8-27,21-40.8,35.6l-.2,1.6c12.1,1.7,26.4,1.9,36,1.4,2.4-.2,4.4-.9,6.8-.5,3.5,0,2.8.6,2.8,3.6l-1,17.7Z"/><path class="cls-1" d="m476.56,157.72c0,23.7-11.1,44-38.8,44-6.8,0-18-4.3-26-10.7-5.4-5-11.6-8.7-17.5-3.3-3.9,3.9-11.8,12-20.6,12-10.9,0-19.4-5-24.2-9.7-14.9-15.3-18.2-47.3-18.2-72.5,0-10.1.4-19.4,1-26l2.1-1.4c3.9,0,14.7-.4,20.4-1,5.6-.6,10.3-1,14.7-1.7,1.4-.6,2.7.6,2.1,3.1-2.7,10.9-6.6,28.1-6.6,39.6,0,7.4,2.9,19,12.6,19,13.4,0,14.2-10.9,14.2-15.1,0-7.2-1.4-12-2.1-19.2-.6-4.7.2-7.6,4.1-7.6,20.6-.6,16.9-1.7,27-1.7,1.9,0,2.7,1.2,2.3,3.5-1.7,13.8-2.5,26.2-2.5,35.9,0,9.1.8,17.3,12.6,17.3,8.9,0,10.5-12,10.5-18.8,0-11.1-3.7-33.7-6.6-44.8-.6-2.5.6-3.7,2.1-3.1,4.3.6,9.1,1,14.7,1.7,6,.6,15.3,1,19.2,1l1.9,1.4c-1.7,19.7,1.6,38.5,1.6,58.1Z"/><path class="cls-1" d="m183.36,83.62c0,2.8,2.2,5,5,5s5-2.2,5-5-2.2-9.9-5-9.9c-2.7,0-5,7.2-5,9.9Z"/><path class="cls-1" d="m192.16,107.22c0,2.8,2.2,5,5,5s5-2.2,5-5-2.2-9.9-5-9.9-5,7.1-5,9.9Z"/><path class="cls-1" d="m241.76,64.82l6.7,8.6c1,1.3,2.6,2.1,4.3,2.3,1.7.1,3.3-.4,4.6-1.6l27.8-25.3c1.2-1.1,2-2.7,2-4.4,0-1.6-.6-3.1-1.7-4.2,9.1-8.7,9.6-23.2,1.1-32.5-4.4-4.8-10.7-7.6-17.3-7.6-5.8,0-11.4,2.2-15.7,6.1-.7.6-1.3,1.2-1.8,1.9l-.5-.5c-2.3-2.2-5.9-2.2-8.2-.1l-22.8,20.8c-2.3,2.1-2.6,5.7-.7,8.2l13.5,17.1-27.4-4c-.9-5.2-4.5-9.6-9.4-11.5-.8-.3-1.7-.3-2.5.2-.8.4-1.3,1.2-1.4,2.1l-3.5,24.1c-.1.9.1,1.8.8,2.4.6.6,1.5,1,2.3.9,5.3-.5,9.9-3.7,12.3-8.4l37.5,5.4Zm38.3-29.8l-23.1-22c.4-.5.9-1.1,1.5-1.5,3-2.7,6.8-4.2,10.8-4.2,4.5,0,8.8,1.9,11.8,5.2,5.8,6.6,5.4,16.6-1,22.5Z"/></g></svg>