<?xml version="1.0" encoding="UTF-8"?><svg id="Layer_2" xmlns="http://www.w3.org/2000/svg" viewBox="0 0 14.68 14.68"><defs><style>.cls-1{fill:#fff;}</style></defs><g id="Layer_3"><path class="cls-1" d="m11.47,0c-1.77,0-3.21,1.44-3.21,3.21,0,1.65,2.58,4.57,2.87,4.89.09.1.21.15.34.15s.25-.06.34-.15c.29-.33,2.87-3.25,2.87-4.89,0-1.77-1.44-3.21-3.21-3.21Zm0,4.59c-.76,0-1.38-.62-1.38-1.38s.62-1.38,1.38-1.38,1.38.62,1.38,1.38-.62,1.38-1.38,1.38Z"/><path class="cls-1" d="m.29,5.39c-.17.07-.29.24-.29.43v8.41c0,.15.08.29.2.38.08.05.17.08.26.08.06,0,.12-.01.17-.03l3.96-1.58V3.67L.29,5.39Z"/><path class="cls-1" d="m12.49,8.72c-.26.29-.63.46-1.02.46s-.76-.17-1.02-.46c-.09-.1-.21-.24-.35-.4v6.37l4.3-1.72c.17-.07.29-.24.29-.43v-6.74c-.75,1.27-1.76,2.45-2.19,2.93Z"/><path class="cls-1" d="m7.63,4.52l-2.12-.85v9.39l3.67,1.47v-7.37c-.59-.79-1.2-1.74-1.55-2.64Z"/></g></svg>