<?xml version="1.0" encoding="utf-8"?>
<!-- Generator: Adobe Illustrator 27.5.0, SVG Export Plug-In . SVG Version: 6.00 Build 0)  -->
<svg version="1.2" baseProfile="tiny" id="Layer_1" xmlns="http://www.w3.org/2000/svg" xmlns:xlink="http://www.w3.org/1999/xlink"
	 x="0px" y="0px" viewBox="0 0 490.7 500" overflow="visible" xml:space="preserve">
<g>
	<g>
		<path fill="#2F483A" d="M3.8,372.3c0,12.2,9.9,22.1,22.1,22.1s22.1-9.9,22.1-22.1c0-12.2-9.9-43.9-22.1-43.9
			C13.7,328.4,3.8,360.1,3.8,372.3z"/>
		<path fill="#2F483A" d="M42.9,476.8c0,12.2,9.9,22.1,22.1,22.1s22.1-9.9,22.1-22.1c0-12.2-9.9-43.9-22.1-43.9
			S42.9,464.5,42.9,476.8z"/>
		<path fill="#2F483A" d="M262.9,288.7l30,38c4.6,5.8,11.5,9.5,18.9,10.1c7.4,0.6,14.8-1.9,20.3-6.9l123.2-112.4
			c5.5-5,8.7-12.1,8.8-19.6c0.1-7-2.7-13.7-7.5-18.7c40.2-38.8,42.6-102.8,4.7-144.4c-19.6-21.5-47.5-33.8-76.6-33.8
			c-25.9,0-50.7,9.6-69.8,27.1c-2.9,2.7-5.6,5.5-8.2,8.4l-2.2-2.1c-10.2-9.7-26.2-9.9-36.6-0.4l-101.3,92.3
			c-10.4,9.5-11.7,25.4-3,36.5l60,76.1l-121.7-17.8c-4.2-23-19.9-42.5-41.8-51.2c-3.6-1.4-7.7-1.1-11.1,0.8c-3.4,2-5.7,5.3-6.2,9.2
			l-15.7,107c-0.6,3.9,0.7,7.8,3.3,10.6c2.7,2.8,6.5,4.3,10.4,3.9c23.5-2.1,44.1-16.3,54.7-37.1L262.9,288.7z M432.9,156.7
			L330.4,59.2c2-2.4,4.1-4.7,6.5-6.8c13.1-11.9,30.1-18.5,47.8-18.5c19.9,0,39,8.4,52.4,23.1C463.3,85.7,461.3,130.3,432.9,156.7z"
			/>
	</g>
</g>
</svg>
