<?xml version="1.0" encoding="UTF-8"?><svg id="Layer_2" xmlns="http://www.w3.org/2000/svg" viewBox="0 0 13.79 14.16"><defs></defs><g id="Layer_3"><path class="cls-1" d="m13.55,8.63l-1.3-1.02c.02-.16.03-.34.03-.53s-.01-.38-.03-.53l1.3-1.02c.24-.19.31-.53.15-.81l-1.35-2.34c-.14-.26-.46-.4-.78-.28l-1.54.62c-.29-.21-.6-.39-.92-.54l-.23-1.63c-.04-.31-.31-.54-.63-.54h-2.71c-.32,0-.59.23-.62.54l-.23,1.63c-.31.14-.61.32-.92.54l-1.54-.62c-.29-.11-.63.01-.78.28L.09,4.71c-.16.27-.09.62.15.82l1.3,1.02c-.02.2-.03.37-.03.53s.01.34.03.53l-1.3,1.02c-.24.19-.31.53-.15.81l1.35,2.34c.14.26.46.4.78.28l1.54-.62c.29.21.6.39.92.54l.23,1.63c.04.31.31.54.63.54h2.71c.32,0,.59-.23.62-.54l.23-1.63c.31-.14.61-.32.92-.54l1.54.62c.07.03.15.04.23.04.23,0,.44-.13.55-.32l1.36-2.35c.15-.28.08-.62-.16-.81Zm-6.66.81c-1.3,0-2.36-1.06-2.36-2.36s1.06-2.36,2.36-2.36,2.36,1.06,2.36,2.36-1.06,2.36-2.36,2.36Z"/></g></svg>
