<?xml version="1.0" encoding="UTF-8"?><svg xmlns="http://www.w3.org/2000/svg" viewBox="0 0 335.05 491.4"><path fill="currentColor" stroke="current" stroke-width=".25" class="cls-1" d="m325.25,193.18c11.82-6.71,11.58-22.32,5.84-32.26-.55-.95-1.14-1.84-1.78-2.67-.32-.42-.65-.82-.99-1.2-2.05-2.29-4.47-3.95-7.11-4.64-.88-.23-1.78-.35-2.71-.35,3.15-2.31,2.53-8.1-.23-11.85-.14-.19-.28-.37-.43-.55-1.48-1.77-3.48-2.95-5.78-2.87-.23,0-.46.03-.7.06,5.5-3.67,9.34-8.7,10.22-14.96.39-2.76.21-5.76-.67-9-.18-.66-.39-1.3-.63-1.92-.08-.22-.19-.42-.28-.63-.17-.4-.33-.79-.53-1.17-.2-.4-.44-.77-.67-1.15-.11-.18-.2-.36-.31-.54-.31-.48-.65-.94-1-1.38-.05-.06-.08-.12-.13-.18-.39-.48-.8-.95-1.23-1.39-.01-.01-.02-.03-.04-.04-1.33-1.36-2.86-2.51-4.5-3.42h-.01c-4.44-2.46-9.8-3.2-14.89-1.65.48-14.91-17.22-18.15-25.03-13.64,8.87-17.54-5.8-47.54-27.95-40.42,2.73-10.92-4.55-23-15.12-26.88-10.57-3.87-23.14-.04-30.79,8.21-.82-10.23-9.19-19.37-19.31-21.09-10.12-1.72-21.04,4.14-25.19,13.53,1.78-5.33-1.22-11.38-5.82-14.6-4.6-3.22-10.42-4.14-16.04-4.37-12.41-.5-27.06,5.23-34.69,15.04-8.85,11.38-8.71,21.62-2.7,28.84-5.38-2.39-9.83-1.71-14.74,2.76-3.8,3.46-5.3,9.36-2.52,14.38-6.25-5.09-15.37-4.01-22.78-.84-7.83,3.35-11.94,10.49-13.54,18.47-13.56-1.75-24.91,12.14-28.05,22.73-2.72,9.17-1.42,22,6.92,28.03.44.33.89.63,1.35.9-.46.31-.88.63-1.24.96-.18.16-.35.33-.51.49-1.42,1.49-1.89,3.1-1.87,4.61,0,.67.11,1.32.28,1.93.65,2.45,2.23,4.27,2.23,4.27,0,0-.1,0-.29,0-1.33-.02-6.91.19-10.96,5.01-4.63,5.51-7.14,17.23.69,24.61-7.16,7.02-10.27,19.28-8.32,32.33.2,1.3.44,2.62.74,3.93,1.49,6.58,4.27,13.25,8.46,19.44,13.44,19.82,43.41,26.35,58.15,17.84-2.56,7.89,1.7,29.64,22.39,34.6.67.16,1.35.3,2.05.43s1.39.23,2.06.32c1.34.18,2.62.28,3.83.33.61.02,1.2.03,1.78.03,16.19-.17,20.74-11.47,20.74-11.47,0,0,10.55,3.98,21.26-.07.72-.27,1.44-.58,2.15-.93.47-.23.93-.47,1.4-.73,1.31-.74,2.6-1.62,3.86-2.66,6.86,7.61,9.29,12.27,13.08,20.25,5.56,11.72,7.18,33.49,7.18,76.59,0,31.05-6.03,63.92-9.4,80.16,0-.02-.02-.04-.04-.06-.7,4-2.31,7.91-2.8,9.49-.55,1.74-1.76,3.65-2.57,5.28-.8,1.63-1.79,3.26-3.23,4.39-1.57,1.24-3.47,1.99-5.01,3.31-1.13.97-2.03,2.2-2.64,3.57-.44-.29-.97.75-1.16,1.07-.26.45-.51.91-.77,1.36-.15-.63-.13-1.3-.17-1.95-.04-.65-.17-1.33-.57-1.84-.08-.1-.22-.18-.3-.09-.03.03-.03.08-.04.13-.06.69-.12,1.37-.18,2.06-.05.55-.1,1.11-.36,1.6-.03.06-.07.12-.14.14-.12.04-.22-.1-.27-.21-.3-.65-.5-1.33-.78-1.98-.29-.65-.69-1.28-1.29-1.66-.14-.09-.36-.14-.44,0-.02.05-.02.1-.02.15.02.32.12.63.2.95.26,1.03.27,2.11.27,3.17,0,.1,0,.21-.07.28-.14.14-.37,0-.5-.15-.62-.67-1.12-1.45-1.47-2.29-.12.04-.18.18-.22.3-.34,1.12.21,2.3.23,3.47-.23.1-.47-.1-.63-.29-.33-.39-.62-.81-.87-1.26-.17.09-.21.32-.21.51,0,1.09.35,2.38.9,3.33.18.31.49.49.75.72,0,.01.03.02.04.04-.34.4-.7.77-1.16,1-.59.28-2.35.55-1.29,1.49.2.18.49.26.79.31h-.02.08c.17.02.34.04.51.05h.1c.19,0,.37.01.52.03,1.71.14,3.44.18,5.16.19,1.89.02,3.78,0,5.68-.07.14.21.3.41.43.63.61.97,1.15,1.88,2.16,2.51,0,0,.02-.01.02-.02-.54.55-1.02,1.17-1.42,1.83-.45.74-.82,1.57-1.51,2.1-.83.63-1.97.71-2.85,1.28-.98.64-1.53,1.85-2.58,2.38-.29.14-.6.23-.87.42-.26.18-.47.5-.4.81,4.5.13,9.03.05,13.51.05,5.3,0,9.77-2.36,14.79-3.53,3.97-.92,7.88-2.15,11.88-2.93,1.33-.26,2.68-.47,4.03-.6.66-.06,1.3-.09,1.94-.11h.63c.42,0,.84.01,1.26.04.24.02.49.04.73.06.38.03.75.08,1.12.13.25.03.5.07.75.11.36.06.73.14,1.09.21.24.05.48.1.72.16.4.1.8.21,1.2.33.3.09.59.17.88.27.44.14.89.3,1.33.46.28.11.56.22.84.34,1.03.41,2.06.87,3.09,1.38,4.52,2.23,8.88,2.74,13.89,3.02,2.07.11,4.15.14,6.22.17,1.15.02,2.3.03,3.45.01.62,0,2.36-.37,2.87-.08-1.92-1.1-4.72-1.66-6.3-3.18-.8-.77-1.31-1.67-2.37-2.17-.45-.22-.95-.34-1.35-.65-.43-.33-.69-.83-.97-1.3-.73-1.22-1.71-2.29-2.85-3.14-.83-.62-2.48-1.44-3.14-1.76h0s-.06-.03-.09-.04c-.12-.06-.2-.1-.2-.1h.18c.21,0,.59.02,1.12.03h.24c.13,0,.27,0,.42.01h.38c.22,0,.46.01.7.02h0c.3,0,.61.01.94.02h.05c.33,0,.66.02,1.02.02h.09c.32,0,.65.02.99.02h.16c1.13.03,2.33.05,3.55.08h.1c.8.02,1.61.03,2.41.04h.22c.36,0,.72.01,1.08.02h.08c.39,0,.78.01,1.16.02h.04c2.81.04,5.21.05,6.3,0-1.1-1.35-2.56-3.5-3.87-4.66-1.69-1.49-4.55-1.35-5.67-3.3-.6-1.05-.66-2.31-1.01-3.47-.88-2.99-3.52-5.05-5.84-7.13-1.73-1.56-2.96-2.7-4.34-4.51-1.29-1.69-3.12-4.35-4.09-8.67-3.08-14.13-10.23-50.58-10.23-84.39,0-43.09,1.74-65.84,14.54-74.94,9.78-6.96,24.84-18,35.71-24.11,8.31,5.01,19.18,7.68,30.57,7.62.58,0,1.17-.01,1.76-.03.98-.03,1.96-.08,2.94-.15.16-.01.32-.02.48-.04.88-.07,1.77-.15,2.65-.25.26-.03.52-.06.78-.09,1.31-.16,2.61-.36,3.92-.6.99-.18,1.98-.38,2.96-.6,2.48-.56,4.94-1.25,7.36-2.08,3.73-1.28,7.36-2.89,10.83-4.84,12.89-7.25,19.68-18.84,22.51-30.53.44-1.8.78-3.6,1.03-5.39,2.17-15.2-1.87-29.47-7.37-33.34l.03.04Zm-175.37,35.42c1.34,1.21,3.23,1.7,5.24,1.6.38-.02.77-.06,1.16-.13.55-.09,1.1-.21,1.65-.38.65-.2,1.3-.46,1.92-.76.03-.02.06-.03.09-.04,3.48-1.74,6.24-5.1,5.79-9.35,1.4.25,2.82.38,4.25.39h.12c3.28,0,6.57-.6,9.66-1.72.07-.03.15-.06.22-.09.35-.13.69-.26,1.04-.4,1.83,6.24,3.37,12.4,3.63,16.87.78,13.44-.71,29.56-6.73,33.73-4.26,2.95-13.73-2.68-22.67-10.32,4.23-10.78-1.52-24.4-5.35-29.41h-.02Zm4.59,250.21h0c.07-.02.15-.03.22-.06-.1.05-.2.11-.29.16.02,0,.03-.02.04-.03,0-.02,0-.05.02-.08h0Zm-1.37.99c.23-.14.43-.3.64-.45-.21.15-.42.3-.64.45-.67.43-1.47.64-2.15,1.06-.14.09-.27.19-.41.29.14-.1.27-.2.41-.29.69-.42,1.49-.63,2.15-1.06Zm31.42-263.81c2.41-1.39,4.58-3.1,6.38-5.05h0c.22-.24.44-.49.65-.74.02-.03.05-.05.07-.08.63-.75,1.2-1.53,1.72-2.34.02-.03.04-.05.05-.08.14-.23.28-.46.42-.7.06-.1.11-.19.16-.29.12-.22.24-.44.35-.66.06-.12.11-.23.17-.35.17-.35.32-.71.47-1.06.07-.17.14-.34.2-.51.06-.18.12-.36.18-.53l.18-.57c.05-.17.1-.34.14-.51.06-.22.11-.45.16-.67.03-.14.07-.28.09-.43.07-.36.13-.73.17-1.09,0-.1.02-.2.03-.31.03-.29.05-.58.07-.87,0-.13,0-.27,0-.4v-.83c0-.12,0-.25,0-.37-.02-.39-.05-.78-.1-1.17.55,7,6.29,14,12.66,17.25-5.7,6.3-10.58,11.3-13.23,12.99-3.96,2.53-7.72-3.18-10.99-10.63h0Zm-34.56,265.57c-.1.08-.19.17-.28.25.1-.08.18-.17.28-.25Zm47.4-198.88c-6.49,0-6.95-7.88-4.63-23.17,2.32-15.29,2.83-19.46,13.46-33.36,2.13-2.78,5.06-6.52,8.36-10.72.45.05.9.08,1.34.07.35,0,.69-.03,1.03-.07.48-.05.96-.14,1.42-.26.35-.09.7-.2,1.05-.34-.28.25-.55.5-.8.76-5.58,5.72-4.32,14.27,1.54,19.9.8.77,1.68,1.48,2.65,2.12.64.43,1.32.83,2.03,1.19.36.18.72.35,1.09.52.74.33,1.52.62,2.33.87.4.12.82.24,1.24.34.04.45.08.9.14,1.34.11.89.27,1.76.47,2.61.1.43.21.85.32,1.26,1.56,5.53,4.84,10.25,9.31,14.07-13.63,9.36-36.33,22.87-42.33,22.87h-.02Z"/></svg>
