<?xml version="1.0" standalone="no"?>
<!DOCTYPE svg PUBLIC "-//W3C//DTD SVG 20010904//EN"
 "http://www.w3.org/TR/2001/REC-SVG-20010904/DTD/svg10.dtd">
<svg version="1.0" xmlns="http://www.w3.org/2000/svg"
 width="693.000000pt" height="693.000000pt" viewBox="0 0 693.000000 693.000000"
 preserveAspectRatio="xMidYMid meet">
<metadata>
Created by potrace 1.14, written by Peter Selinger 2001-2017
</metadata>
<g transform="translate(0.000000,693.000000) scale(0.100000,-0.100000)"
fill="#000000" stroke="none">
<path d="M808 6840 c-99 -16 -179 -66 -232 -144 -51 -76 -66 -139 -66 -285 0
-626 201 -1227 545 -1632 184 -216 455 -401 736 -503 338 -122 769 -156 1202
-95 43 6 80 9 83 6 3 -3 -11 -76 -30 -163 -130 -586 -186 -1107 -172 -1624 l6
-245 -52 51 c-179 172 -431 320 -685 403 -510 168 -1122 123 -1781 -131 -81
-31 -112 -49 -150 -86 -83 -81 -122 -197 -102 -301 22 -118 127 -383 224 -566
340 -643 807 -1027 1406 -1156 92 -20 134 -23 340 -23 202 -1 251 2 350 21
238 46 530 143 722 239 37 19 72 34 78 34 6 0 18 -19 27 -42 34 -86 167 -346
240 -470 l75 -128 424 0 424 0 -79 103 c-500 659 -748 1392 -778 2301 l-6 206
104 -65 c828 -522 1711 -473 2469 136 259 208 617 614 655 742 35 117 9 245
-65 329 -119 135 -430 346 -710 482 -352 170 -683 246 -1025 233 -442 -17
-848 -191 -1176 -504 -42 -40 -79 -73 -82 -73 -7 0 69 297 117 456 130 435
350 987 520 1309 66 125 78 161 78 239 -1 92 -33 169 -101 237 -140 140 -354
138 -489 -5 -75 -79 -254 -444 -412 -838 l-67 -168 -17 83 c-29 135 -112 371
-175 501 -108 219 -229 385 -404 552 -328 313 -766 503 -1312 569 -152 19
-575 28 -657 15z m560 -701 c231 -25 427 -77 600 -159 140 -67 230 -129 333
-227 218 -210 356 -500 405 -855 l6 -46 -57 -7 c-78 -10 -275 2 -410 25 -460
78 -773 363 -935 847 -39 118 -73 268 -86 376 -8 67 -17 64 144 46z m3942
-2384 c175 -38 437 -147 598 -248 l54 -34 -92 -92 c-276 -275 -560 -436 -860
-486 -202 -34 -448 -8 -655 70 -77 29 -286 135 -324 164 l-25 19 59 79 c32 43
106 125 164 183 199 197 402 310 638 355 98 18 336 13 443 -10z m-3625 -1745
c375 -54 693 -258 910 -585 60 -90 135 -224 135 -242 0 -22 -223 -96 -395
-130 -66 -13 -135 -17 -260 -17 -150 1 -181 4 -266 26 -297 80 -543 274 -755
598 -78 120 -157 267 -147 273 18 11 246 59 338 71 120 17 343 19 440 6z"/>
</g>
</svg>
